<svg xmlns="http://www.w3.org/2000/svg" width="1080" height="1920" viewBox="0 0 1080 1920">
      <rect width="1080" height="1920" fill="#f7f8fa"/>
      <rect x="54" y="54" width="972" height="1812" rx="54" fill="#ffffff" stroke="#dde3ea" stroke-width="2"/>
      <rect x="88" y="104" width="74" height="74" rx="18" fill="#121817"/>
      <path d="M130 119 105 160h19l-5 32 32-52h-20z" fill="#f2c84b"/>
      <text x="190" y="148" fill="#111418" font-size="40" font-family="Inter, Arial, sans-serif" font-weight="900">Power Window</text>
      <text x="190" y="188" fill="#667085" font-size="24" font-family="Inter, Arial, sans-serif">Planificador eléctrico para España</text>
      <rect x="88" y="252" width="904" height="606" rx="30" fill="#121817"/>
      <text x="128" y="334" fill="#aab4b0" font-size="28" font-family="Inter, Arial, sans-serif" font-weight="800">Encuentra la mejor franja</text>
      <text x="128" y="500" fill="#ffffff" font-size="116" font-family="Inter, Arial, sans-serif" font-weight="900">2 PM-4 PM</text>
      <text x="128" y="592" fill="#c7d0cc" font-size="34" font-family="Inter, Arial, sans-serif">Datos REE en directo</text>
      <rect x="128" y="684" width="254" height="60" rx="30" fill="#123e36" stroke="#12836f" stroke-width="2"/>
      <text x="158" y="724" fill="#8af0d3" font-size="28" font-family="Inter, Arial, sans-serif" font-weight="800">Caché backend</text>
      <rect x="418" y="684" width="248" height="60" rx="30" fill="#2b2514" stroke="#f2c84b" stroke-width="2"/>
      <text x="448" y="724" fill="#ffe391" font-size="28" font-family="Inter, Arial, sans-serif" font-weight="800">Mejor franja</text>
      
        <rect x="88" y="980" width="904" height="134" rx="18" fill="#ffffff" stroke="#dde3ea" stroke-width="2"/>
        <text x="124" y="1028" fill="#667085" font-size="28" font-family="Inter, Arial, sans-serif" font-weight="800">Nota de horario</text>
        <text x="124" y="1081" fill="#111418" font-size="46" font-family="Inter, Arial, sans-serif" font-weight="900">A</text>
      
        <rect x="88" y="1156" width="904" height="134" rx="18" fill="#ffffff" stroke="#dde3ea" stroke-width="2"/>
        <text x="124" y="1204" fill="#667085" font-size="28" font-family="Inter, Arial, sans-serif" font-weight="800">Coste estimado</text>
        <text x="124" y="1257" fill="#111418" font-size="46" font-family="Inter, Arial, sans-serif" font-weight="900">0,22 EUR</text>
      
        <rect x="88" y="1332" width="904" height="134" rx="18" fill="#ffffff" stroke="#dde3ea" stroke-width="2"/>
        <text x="124" y="1380" fill="#667085" font-size="28" font-family="Inter, Arial, sans-serif" font-weight="800">Ahora vs mejor</text>
        <text x="124" y="1433" fill="#111418" font-size="46" font-family="Inter, Arial, sans-serif" font-weight="900">Ahorra 1,64 EUR</text>
      
      <rect x="88" y="1546" width="904" height="188" rx="22" fill="#f6fbf9" stroke="#b9ddd4" stroke-width="2"/>
      <text x="124" y="1606" fill="#12836f" font-size="30" font-family="Inter, Arial, sans-serif" font-weight="900">Planifica consumos flexibles</text>
      <text x="124" y="1660" fill="#667085" font-size="28" font-family="Inter, Arial, sans-serif">AC, lavavajillas, lavadora, coche eléctrico y conector demo.</text>
    </svg>
  